<?xml version="1.0" standalone="no"?>
<!DOCTYPE svg PUBLIC "-//W3C//DTD SVG 20010904//EN"
 "http://www.w3.org/TR/2001/REC-SVG-20010904/DTD/svg10.dtd">
<svg version="1.0" xmlns="http://www.w3.org/2000/svg"
 width="700.000000pt" height="700.000000pt" viewBox="0 0 700.000000 700.000000"
 preserveAspectRatio="xMidYMid meet">
<metadata>
Created by potrace 1.11, written by Peter Selinger 2001-2013
</metadata>
<g transform="translate(0.000000,700.000000) scale(0.100000,-0.100000)"
fill="#000000" stroke="none">
<path d="M1740 6400 c-20 -36 -70 -121 -110 -190 -40 -69 -83 -143 -95 -165
-40 -69 -481 -833 -649 -1123 -39 -68 -86 -151 -104 -185 -19 -34 -40 -69 -48
-78 -8 -8 -14 -18 -14 -22 0 -3 -14 -30 -31 -59 -18 -29 -41 -69 -52 -88 -11
-19 -86 -150 -167 -290 -81 -140 -157 -271 -168 -290 -11 -19 -52 -91 -92
-160 -40 -69 -84 -145 -98 -170 -13 -25 -29 -50 -33 -56 -5 -6 5 -34 26 -69
19 -31 35 -59 35 -60 0 -2 64 -112 141 -246 78 -134 151 -260 162 -279 10 -19
61 -107 112 -195 51 -88 103 -178 115 -200 12 -22 53 -92 90 -155 37 -63 78
-133 90 -155 12 -22 90 -157 173 -300 82 -143 159 -276 170 -295 10 -19 52
-91 92 -160 40 -69 168 -289 283 -489 l211 -364 1704 -1 1705 -1 49 85 c46 79
812 1405 864 1496 23 40 214 371 253 437 294 507 536 931 536 939 0 5 -24 51
-54 101 -29 51 -64 112 -78 137 -14 25 -131 227 -260 450 -129 223 -246 425
-260 450 -14 25 -82 143 -152 263 -70 120 -138 239 -153 265 -14 26 -47 83
-73 127 -26 44 -143 247 -260 450 -117 204 -251 435 -297 515 -46 80 -90 156
-98 170 l-14 25 -1706 0 -1707 1 -38 -66z m3536 -880 c173 -300 334 -579 358
-620 24 -41 53 -91 64 -110 42 -75 506 -878 537 -930 18 -30 43 -73 55 -95 12
-22 49 -86 81 -142 33 -56 59 -107 59 -112 0 -6 -8 -25 -19 -43 -35 -61 -722
-1252 -761 -1318 -20 -36 -62 -108 -93 -160 -67 -115 -461 -800 -487 -844 -9
-18 -38 -68 -64 -112 l-46 -80 -1475 1 c-1463 0 -1475 0 -1488 20 -8 11 -25
40 -39 65 -14 25 -76 133 -138 240 -62 107 -123 213 -136 235 -12 22 -59 102
-103 179 -45 76 -81 140 -81 141 0 2 -26 47 -58 102 -32 54 -70 118 -84 143
-14 25 -34 61 -45 80 -161 278 -309 534 -497 860 -125 217 -241 416 -256 443
l-29 47 139 243 c77 133 144 249 149 257 6 8 34 58 64 110 30 52 178 309 329
570 151 261 286 495 300 520 14 25 82 142 150 260 69 118 169 292 223 385 53
94 104 180 111 193 l15 22 1475 -2 1475 -3 315 -545z"/>
<path d="M2097 5950 c-24 -4 -50 -44 -198 -300 -94 -162 -181 -313 -193 -335
-38 -67 -319 -552 -390 -674 -36 -62 -66 -115 -66 -118 0 -2 -11 -20 -24 -41
-13 -20 -85 -145 -161 -277 -76 -132 -196 -340 -267 -462 -70 -122 -128 -226
-128 -232 0 -5 174 -311 386 -678 213 -367 400 -693 417 -723 16 -30 33 -59
38 -65 7 -9 87 -148 148 -256 14 -26 113 -198 220 -383 l195 -336 1410 0 1411
0 110 191 c61 105 121 210 134 233 23 40 89 155 488 846 676 1170 677 1172
666 1189 -5 9 -131 225 -278 481 -147 256 -333 577 -412 713 -79 137 -147 256
-150 265 -3 10 -12 24 -18 32 -7 8 -130 220 -275 470 -144 250 -264 457 -266
459 -6 6 -2765 7 -2797 1z m606 -329 c4 0 7 -137 7 -304 l0 -302 -339 0 c-187
0 -342 3 -346 6 -3 4 -6 46 -6 93 l0 86 121 209 c94 162 126 210 143 213 20 3
401 2 420 -1z m757 0 c7 -1 5 -575 -2 -592 -5 -12 -62 -14 -344 -14 l-339 0
-3 299 c-1 180 1 302 7 305 8 5 662 7 681 2z m745 -3 c7 -4 10 -111 9 -300 -1
-161 -2 -295 -3 -298 0 -3 -155 -5 -343 -5 l-343 0 0 302 c0 295 0 302 20 305
40 6 650 2 660 -4z m499 2 c2 -3 63 -107 135 -231 l131 -227 0 -70 c0 -47 -4
-71 -12 -74 -7 -2 -163 -4 -347 -4 l-334 1 -1 294 c-1 198 3 298 10 305 10 11
407 16 418 6z m-2753 -603 c-8 -8 -14 -8 -21 -1 -8 8 -5 20 7 42 l18 32 3 -31
c2 -17 -1 -36 -7 -42z m3099 1 c0 -5 -4 -8 -10 -8 -5 0 -10 10 -10 23 0 18 2
19 10 7 5 -8 10 -18 10 -22z m-3092 -408 l-3 -345 -230 -1 c-126 0 -233 1
-237 3 -4 2 21 52 56 111 87 149 255 440 279 482 53 97 55 99 98 97 l39 -2 -2
-345z m750 0 l2 -346 -339 1 c-187 0 -342 3 -346 6 -5 5 -8 334 -5 640 l0 46
343 -1 342 -1 3 -345z m753 326 c1 -26 1 -635 0 -656 -1 -14 -41 -15 -338 -14
-186 1 -341 2 -345 3 -9 1 -11 675 -3 683 3 3 158 5 345 5 338 0 340 0 341
-21z m754 -322 c0 -224 -3 -344 -10 -345 -24 -3 -661 -5 -670 -2 -7 2 -10 122
-9 346 1 188 2 342 3 343 0 0 155 1 344 1 l342 0 0 -343z m753 -3 l-3 -346
-342 0 c-230 -1 -343 3 -344 10 0 5 -1 160 -2 343 -1 214 2 333 8 336 6 1 162
3 348 3 l337 0 -2 -346z m302 32 c101 -175 192 -332 202 -348 l17 -31 -229 1
-230 0 0 345 0 346 28 2 c27 2 36 -11 212 -315z m-3310 -784 l0 -346 -350 1
c-192 0 -351 3 -351 6 -1 3 -2 83 -3 179 l-2 175 92 160 c65 114 99 162 114
166 12 3 129 5 261 5 l239 0 0 -346z m738 342 c9 -1 12 -77 12 -344 l0 -343
-345 0 -345 -1 -1 26 c-4 219 2 655 10 660 7 5 598 6 669 2z m759 -4 c4 -5 8
-589 4 -668 -1 -14 -39 -15 -343 -15 l-343 1 -3 342 c-2 314 -1 342 15 345 31
6 663 1 670 -5z m748 4 c6 -1 10 -118 9 -334 -1 -182 -2 -337 -3 -343 -1 -11
-680 -17 -682 -5 -1 3 -2 158 -3 343 -1 331 -1 337 19 340 16 2 627 1 660 -1z
m748 0 c16 -1 17 -24 17 -344 l0 -343 -345 0 c-306 0 -345 1 -346 15 -1 21 -1
664 0 671 1 4 594 5 674 1z m572 -3 c2 -2 50 -83 106 -179 l101 -174 1 -153
c1 -85 -1 -159 -5 -165 -5 -9 -103 -12 -353 -13 l-345 -1 0 342 c0 188 2 344
4 346 6 5 485 3 491 -3z m-4306 -536 l1 -147 -85 -1 c-47 -1 -85 1 -85 3 0 5
164 292 167 293 0 0 1 -66 2 -148z m4638 -36 c35 -60 63 -110 63 -111 0 -1
-34 -2 -75 -2 l-75 0 0 131 c1 104 3 127 12 111 6 -11 40 -69 75 -129z m-4638
-297 c-1 -111 -2 -118 -15 -93 -8 15 -31 54 -51 88 -20 34 -45 76 -55 94 l-20
32 72 0 71 0 -2 -121z m741 -224 l0 -345 -242 0 -243 1 -111 197 -112 197 3
145 c1 80 3 146 4 148 0 1 159 2 351 2 l350 0 0 -345z m750 0 l0 -345 -345 0
-345 0 0 90 c-1 50 -1 182 -1 295 0 113 0 228 1 255 l0 50 345 0 345 0 0 -345z
m752 15 c0 -179 -1 -333 -1 -342 -1 -17 -24 -18 -346 -18 l-345 0 0 345 0 345
346 -2 347 -3 -1 -325z m749 323 c1 -5 2 -160 3 -345 l1 -338 -345 0 -345 0 1
338 c1 185 2 340 3 345 0 4 154 7 341 7 187 0 341 -3 341 -7z m759 -338 l0
-345 -345 0 c-190 0 -345 3 -346 8 -1 9 -1 642 0 665 1 16 24 17 346 17 l345
0 0 -345z m761 323 c1 -13 2 -73 2 -134 l0 -112 -120 -208 -121 -209 -231 -3
-231 -2 0 345 0 345 350 0 350 0 1 -22z m149 15 c0 -5 -25 -51 -55 -103 l-55
-95 0 103 0 102 55 0 c30 0 55 -3 55 -7z m-3920 -1094 c-1 -329 -2 -349 -19
-349 -18 0 -37 18 -57 55 -6 11 -88 154 -183 317 -94 164 -174 304 -177 312
-5 12 28 14 216 14 l220 -1 0 -348z m750 1 l0 -347 -345 0 c-309 0 -345 2
-345 16 -1 38 -1 514 0 592 l0 86 345 0 345 0 0 -347z m751 331 c1 -21 1 -664
0 -672 -1 -3 -156 -6 -346 -6 l-345 1 0 346 0 347 345 0 c308 0 345 -2 346
-16z m754 -331 l0 -345 -330 -2 c-181 0 -337 1 -345 3 -13 3 -15 48 -14 341 1
186 2 341 3 344 0 3 155 6 344 5 l342 -1 0 -345z m755 0 l0 -347 -347 1 -346
1 -1 328 c-1 181 2 336 6 347 6 17 25 18 347 17 l341 0 0 -347z m476 336 c-18
-45 -394 -680 -403 -684 -10 -3 -13 70 -13 341 0 189 3 346 6 349 11 12 415 5
410 -6z m-2736 -1011 l0 -275 -22 -1 c-13 0 -113 -1 -223 -2 l-200 -2 -102
179 c-57 98 -103 180 -103 183 0 3 -9 16 -20 30 -16 20 -20 41 -20 94 l0 69
345 0 345 0 0 -275z m753 3 c0 -148 -2 -271 -6 -274 -4 -4 -491 -8 -659 -5
l-28 1 0 275 0 275 347 -2 346 -3 0 -267z m748 265 c1 -5 2 -128 3 -275 1
-262 1 -268 -19 -269 -104 -3 -656 0 -662 4 -6 4 -10 533 -4 545 3 6 681 1
682 -5z m759 -41 c0 -34 -7 -58 -25 -84 -14 -20 -25 -39 -25 -43 0 -4 -207
-364 -216 -374 -5 -5 -412 -3 -421 2 -6 4 -9 433 -4 530 1 16 24 17 346 17
l345 0 0 -48z"/>
</g>
</svg>
